<svg width="19" height="10" viewBox="0 0 19 10" fill="none" xmlns="http://www.w3.org/2000/svg">
<path d="M0 4.99998C0 4.4477 0.447715 3.99998 1 3.99998L12 4C12 4 14.4477 3.99998 15 3.99998C15.5523 3.99998 16 4.99998 16 4.99998C16 4.99998 15.5523 5.99998 15 5.99998H12H6.5H1C0.447715 5.99998 0 5.55226 0 4.99998Z" fill="#1C1A17"/>
<path d="M17.8608 4.18625L13.5812 1.12944C12.9194 0.656673 12 1.1298 12 1.94317V4V5.99998V8.05679C12 8.87016 12.9194 9.34329 13.5812 8.87052L17.8608 5.81371C18.4191 5.41489 18.4191 4.58507 17.8608 4.18625Z" fill="#1C1A17"/>
</svg>
